<?xml version="1.0" standalone="no"?>
<!DOCTYPE svg PUBLIC "-//W3C//DTD SVG 20010904//EN"
 "http://www.w3.org/TR/2001/REC-SVG-20010904/DTD/svg10.dtd">
<svg version="1.0" xmlns="http://www.w3.org/2000/svg"
 width="1200.000000pt" height="1200.000000pt" viewBox="0 0 1200.000000 1200.000000"
 preserveAspectRatio="xMidYMid meet">
<metadata>
Created by potrace 1.14, written by Peter Selinger 2001-2017
</metadata>
<g transform="translate(0.000000,1200.000000) scale(0.100000,-0.100000)"
fill="#000000" stroke="none">
<path d="M5660 11990 c-1207 -75 -2313 -480 -3268 -1199 -1106 -833 -1898
-2036 -2222 -3376 -345 -1425 -150 -2963 535 -4236 704 -1308 1843 -2299 3232
-2813 967 -357 2046 -454 3088 -276 1663 284 3138 1271 4049 2710 450 709 747
1517 865 2355 86 605 77 1258 -25 1855 -325 1901 -1543 3527 -3279 4379 -663
326 -1360 520 -2105 586 -214 19 -674 27 -870 15z m3158 -5712 l2 -3948 -805
0 -805 0 -2 385 -3 386 -82 -103 c-223 -281 -518 -510 -821 -635 -243 -101
-454 -142 -757 -150 -973 -24 -1745 384 -2293 1211 -271 408 -443 894 -509
1436 -22 181 -25 724 -5 895 45 388 135 731 270 1037 225 508 592 956 1015
1239 138 92 366 208 517 263 146 52 342 101 506 126 179 27 506 37 664 21 577
-60 1039 -318 1413 -788 l82 -104 3 1341 2 1340 803 -2 802 -3 3 -3947z"/>
<path d="M5650 6884 c-366 -44 -610 -152 -838 -368 -148 -142 -241 -276 -324
-469 -162 -375 -179 -915 -41 -1327 140 -420 465 -748 874 -878 325 -104 736
-90 1029 35 178 76 300 163 446 316 191 200 317 451 374 742 61 317 41 707
-51 988 -70 213 -175 390 -328 550 -201 210 -423 333 -701 388 -92 18 -362 32
-440 23z"/>
</g>
</svg>
